<svg width="682" height="139" viewBox="0 0 682 139" fill="none" xmlns="http://www.w3.org/2000/svg">
<path d="M48.0851 90.432L5 67.6235C36.3054 50.4249 70.3175 38.6975 105.57 32.9468C99.8204 68.1981 88.0943 102.209 70.8972 133.513L48.0851 90.432ZM48.0851 90.432L75.9274 62.5896" stroke="#ECFDF5" stroke-width="10" stroke-linecap="round" stroke-linejoin="round"/>
<path d="M145.068 115V45.1818H191.295V57.3523H159.83V73.9886H188.227V86.1591H159.83V115H145.068ZM200.108 115V62.6364H214.188V71.7727H214.733C215.688 68.5227 217.29 66.0682 219.54 64.4091C221.79 62.7273 224.381 61.8864 227.312 61.8864C228.04 61.8864 228.824 61.9318 229.665 62.0227C230.506 62.1136 231.244 62.2386 231.881 62.3977V75.2841C231.199 75.0795 230.256 74.8977 229.051 74.7386C227.847 74.5795 226.744 74.5 225.744 74.5C223.608 74.5 221.699 74.9659 220.017 75.8977C218.358 76.8068 217.04 78.0795 216.062 79.7159C215.108 81.3523 214.631 83.2386 214.631 85.375V115H200.108ZM260.815 116.023C255.429 116.023 250.793 114.932 246.906 112.75C243.043 110.545 240.065 107.432 237.974 103.409C235.884 99.3636 234.838 94.5795 234.838 89.0568C234.838 83.6705 235.884 78.9432 237.974 74.875C240.065 70.8068 243.009 67.6364 246.804 65.3636C250.622 63.0909 255.099 61.9545 260.236 61.9545C263.69 61.9545 266.906 62.5114 269.884 63.625C272.884 64.7159 275.497 66.3636 277.724 68.5682C279.974 70.7727 281.724 73.5455 282.974 76.8864C284.224 80.2045 284.849 84.0909 284.849 88.5455V92.5341H240.634V83.5341H271.179C271.179 81.4432 270.724 79.5909 269.815 77.9773C268.906 76.3636 267.645 75.1023 266.031 74.1932C264.44 73.2614 262.588 72.7955 260.474 72.7955C258.27 72.7955 256.315 73.3068 254.611 74.3295C252.929 75.3295 251.611 76.6818 250.656 78.3864C249.702 80.0682 249.213 81.9432 249.19 84.0114V92.5682C249.19 95.1591 249.668 97.3977 250.622 99.2841C251.599 101.17 252.974 102.625 254.747 103.648C256.52 104.67 258.622 105.182 261.054 105.182C262.668 105.182 264.145 104.955 265.486 104.5C266.827 104.045 267.974 103.364 268.929 102.455C269.884 101.545 270.611 100.432 271.111 99.1136L284.543 100C283.861 103.227 282.463 106.045 280.349 108.455C278.259 110.841 275.554 112.705 272.236 114.045C268.94 115.364 265.134 116.023 260.815 116.023ZM301.886 134.636C300.045 134.636 298.318 134.489 296.705 134.193C295.114 133.92 293.795 133.568 292.75 133.136L296.023 122.295C297.727 122.818 299.261 123.102 300.625 123.148C302.011 123.193 303.205 122.875 304.205 122.193C305.227 121.511 306.057 120.352 306.693 118.716L307.545 116.5L288.761 62.6364H304.034L314.875 101.091H315.42L326.364 62.6364H341.739L321.386 120.659C320.409 123.477 319.08 125.932 317.398 128.023C315.739 130.136 313.636 131.761 311.091 132.898C308.545 134.057 305.477 134.636 301.886 134.636ZM362.696 115.989C359.355 115.989 356.378 115.409 353.764 114.25C351.151 113.068 349.082 111.33 347.56 109.034C346.06 106.716 345.31 103.83 345.31 100.375C345.31 97.4659 345.844 95.0227 346.912 93.0455C347.98 91.0682 349.435 89.4773 351.276 88.2727C353.116 87.0682 355.207 86.1591 357.548 85.5455C359.912 84.9318 362.389 84.5 364.98 84.25C368.026 83.9318 370.48 83.6364 372.344 83.3636C374.207 83.0682 375.56 82.6364 376.401 82.0682C377.241 81.5 377.662 80.6591 377.662 79.5455V79.3409C377.662 77.1818 376.98 75.5114 375.616 74.3295C374.276 73.1477 372.366 72.5568 369.889 72.5568C367.276 72.5568 365.196 73.1364 363.651 74.2955C362.105 75.4318 361.082 76.8636 360.582 78.5909L347.151 77.5C347.832 74.3182 349.173 71.5682 351.173 69.25C353.173 66.9091 355.753 65.1136 358.912 63.8636C362.094 62.5909 365.776 61.9545 369.957 61.9545C372.866 61.9545 375.651 62.2955 378.31 62.9773C380.991 63.6591 383.366 64.7159 385.435 66.1477C387.526 67.5795 389.173 69.4205 390.378 71.6705C391.582 73.8977 392.185 76.5682 392.185 79.6818V115H378.412V107.739H378.003C377.162 109.375 376.037 110.818 374.628 112.068C373.219 113.295 371.526 114.261 369.548 114.966C367.571 115.648 365.287 115.989 362.696 115.989ZM366.855 105.966C368.991 105.966 370.878 105.545 372.514 104.705C374.151 103.841 375.435 102.682 376.366 101.227C377.298 99.7727 377.764 98.125 377.764 96.2841V90.7273C377.31 91.0227 376.685 91.2955 375.889 91.5455C375.116 91.7727 374.241 91.9886 373.264 92.1932C372.287 92.375 371.31 92.5455 370.332 92.7045C369.355 92.8409 368.469 92.9659 367.673 93.0795C365.969 93.3295 364.48 93.7273 363.207 94.2727C361.935 94.8182 360.946 95.5568 360.241 96.4886C359.537 97.3977 359.185 98.5341 359.185 99.8977C359.185 101.875 359.901 103.386 361.332 104.432C362.787 105.455 364.628 105.966 366.855 105.966ZM396.659 57.3523V45.1818H454V57.3523H432.625V115H418.034V57.3523H396.659ZM457.733 115V62.6364H471.812V71.7727H472.358C473.313 68.5227 474.915 66.0682 477.165 64.4091C479.415 62.7273 482.006 61.8864 484.938 61.8864C485.665 61.8864 486.449 61.9318 487.29 62.0227C488.131 62.1136 488.869 62.2386 489.506 62.3977V75.2841C488.824 75.0795 487.881 74.8977 486.676 74.7386C485.472 74.5795 484.369 74.5 483.369 74.5C481.233 74.5 479.324 74.9659 477.642 75.8977C475.983 76.8068 474.665 78.0795 473.688 79.7159C472.733 81.3523 472.256 83.2386 472.256 85.375V115H457.733ZM510.446 115.989C507.105 115.989 504.128 115.409 501.514 114.25C498.901 113.068 496.832 111.33 495.31 109.034C493.81 106.716 493.06 103.83 493.06 100.375C493.06 97.4659 493.594 95.0227 494.662 93.0455C495.73 91.0682 497.185 89.4773 499.026 88.2727C500.866 87.0682 502.957 86.1591 505.298 85.5455C507.662 84.9318 510.139 84.5 512.73 84.25C515.776 83.9318 518.23 83.6364 520.094 83.3636C521.957 83.0682 523.31 82.6364 524.151 82.0682C524.991 81.5 525.412 80.6591 525.412 79.5455V79.3409C525.412 77.1818 524.73 75.5114 523.366 74.3295C522.026 73.1477 520.116 72.5568 517.639 72.5568C515.026 72.5568 512.946 73.1364 511.401 74.2955C509.855 75.4318 508.832 76.8636 508.332 78.5909L494.901 77.5C495.582 74.3182 496.923 71.5682 498.923 69.25C500.923 66.9091 503.503 65.1136 506.662 63.8636C509.844 62.5909 513.526 61.9545 517.707 61.9545C520.616 61.9545 523.401 62.2955 526.06 62.9773C528.741 63.6591 531.116 64.7159 533.185 66.1477C535.276 67.5795 536.923 69.4205 538.128 71.6705C539.332 73.8977 539.935 76.5682 539.935 79.6818V115H526.162V107.739H525.753C524.912 109.375 523.787 110.818 522.378 112.068C520.969 113.295 519.276 114.261 517.298 114.966C515.321 115.648 513.037 115.989 510.446 115.989ZM514.605 105.966C516.741 105.966 518.628 105.545 520.264 104.705C521.901 103.841 523.185 102.682 524.116 101.227C525.048 99.7727 525.514 98.125 525.514 96.2841V90.7273C525.06 91.0227 524.435 91.2955 523.639 91.5455C522.866 91.7727 521.991 91.9886 521.014 92.1932C520.037 92.375 519.06 92.5455 518.082 92.7045C517.105 92.8409 516.219 92.9659 515.423 93.0795C513.719 93.3295 512.23 93.7273 510.957 94.2727C509.685 94.8182 508.696 95.5568 507.991 96.4886C507.287 97.3977 506.935 98.5341 506.935 99.8977C506.935 101.875 507.651 103.386 509.082 104.432C510.537 105.455 512.378 105.966 514.605 105.966ZM598.145 62.6364L579.838 115H563.474L545.168 62.6364H560.509L571.384 100.102H571.929L582.77 62.6364H598.145ZM627.753 116.023C622.366 116.023 617.73 114.932 613.844 112.75C609.98 110.545 607.003 107.432 604.912 103.409C602.821 99.3636 601.776 94.5795 601.776 89.0568C601.776 83.6705 602.821 78.9432 604.912 74.875C607.003 70.8068 609.946 67.6364 613.741 65.3636C617.56 63.0909 622.037 61.9545 627.173 61.9545C630.628 61.9545 633.844 62.5114 636.821 63.625C639.821 64.7159 642.435 66.3636 644.662 68.5682C646.912 70.7727 648.662 73.5455 649.912 76.8864C651.162 80.2045 651.787 84.0909 651.787 88.5455V92.5341H607.571V83.5341H638.116C638.116 81.4432 637.662 79.5909 636.753 77.9773C635.844 76.3636 634.582 75.1023 632.969 74.1932C631.378 73.2614 629.526 72.7955 627.412 72.7955C625.207 72.7955 623.253 73.3068 621.548 74.3295C619.866 75.3295 618.548 76.6818 617.594 78.3864C616.639 80.0682 616.151 81.9432 616.128 84.0114V92.5682C616.128 95.1591 616.605 97.3977 617.56 99.2841C618.537 101.17 619.912 102.625 621.685 103.648C623.457 104.67 625.56 105.182 627.991 105.182C629.605 105.182 631.082 104.955 632.423 104.5C633.764 104.045 634.912 103.364 635.866 102.455C636.821 101.545 637.548 100.432 638.048 99.1136L651.48 100C650.798 103.227 649.401 106.045 647.287 108.455C645.196 110.841 642.491 112.705 639.173 114.045C635.878 115.364 632.071 116.023 627.753 116.023ZM675.787 45.1818V115H661.264V45.1818H675.787Z" fill="#ECFDF5"/>
</svg>
